<svg id="Layer_1" data-name="Layer 1" xmlns="http://www.w3.org/2000/svg" viewBox="0 0 73.44 34.34"><defs><style>.cls-1{fill:none;stroke:#253149;stroke-linecap:round;stroke-linejoin:round;}</style></defs><title>large_car</title><line class="cls-1" x1="52.62" y1="27.08" x2="24.09" y2="27.08"/><path class="cls-1" d="M13.6,38.41H4.4V29l2.16,0V21.7H19.31s2.33,0,4.75-3l7.46-6.9H68.7s4,.28,4.19,4V33h2.87v5.42H70.59" transform="translate(-3.9 -11.33)"/><polygon class="cls-1" points="21.91 10.38 29.17 3.71 56.06 3.71 56.06 10.38 21.91 10.38"/><line class="cls-1" x1="29.17" y1="3.71" x2="29.17" y2="10.37"/><line class="cls-1" x1="44.43" y1="3.71" x2="44.43" y2="27.08"/><path class="cls-1" d="M62.42,15.75v6h5.81V17.07s.16-2-2.62-2H62.42Z" transform="translate(-3.9 -11.33)"/><path class="cls-1" d="M7,24.86A2.07,2.07,0,0,1,7,29" transform="translate(-3.9 -11.33)"/><path class="cls-1" d="M72.89,16.56h.64a3.32,3.32,0,0,1,3.31,3.31v8a3.32,3.32,0,0,1-3.31,3.31h-.64" transform="translate(-3.9 -11.33)"/><path class="cls-1" d="M68.39,16.56" transform="translate(-3.9 -11.33)"/><path class="cls-1" d="M65.08,19.87" transform="translate(-3.9 -11.33)"/><path class="cls-1" d="M65.08,27.91" transform="translate(-3.9 -11.33)"/><circle class="cls-1" cx="16.89" cy="26.8" r="7.04"/><circle class="cls-1" cx="59.66" cy="26.8" r="7.04"/><circle class="cls-1" cx="16.89" cy="26.8" r="2.59"/><path class="cls-1" d="M11.48,32.85a11.39,11.39,0,0,1,9.22-5.34C26.9,27.43,30,32.85,30,32.85H54.37s2.37-4.37,5.93-4.94" transform="translate(-3.9 -11.33)"/><circle class="cls-1" cx="59.48" cy="26.8" r="2.59"/></svg>