<svg id="Layer_1" data-name="Layer 1" xmlns="http://www.w3.org/2000/svg" viewBox="0 0 69.08 33.89"><defs><style>.cls-1,.cls-2{fill:none;stroke:#253149;}.cls-1{stroke-linecap:round;stroke-linejoin:round;}.cls-2{stroke-miterlimit:10;}</style></defs><title>motorcycle</title><path class="cls-1" d="M80.67,28.35" transform="translate(-4.07 -5.75)"/><path class="cls-2" d="M-8.67,28.38" transform="translate(-4.07 -5.75)"/><circle class="cls-1" cx="9.91" cy="23.98" r="9.41"/><circle class="cls-1" cx="59.17" cy="23.98" r="9.41"/><circle class="cls-1" cx="9.84" cy="23.98" r="3.82"/><circle class="cls-1" cx="59.17" cy="23.98" r="3.82"/><path class="cls-1" d="M42.8,11.83c2,.39,3.3,1.48,3.3,3.3a3.3,3.3,0,0,1-3.3,3.3H29.89a4.95,4.95,0,0,1,0-9.89Z" transform="translate(-4.07 -5.75)"/><path class="cls-1" d="M34.84,13.48" transform="translate(-4.07 -5.75)"/><path class="cls-1" d="M29.87,21.08,28,22.17l3.47,7.08s.94,2.66,3.4,2.66h13.5" transform="translate(-4.07 -5.75)"/><path class="cls-2" d="M63.11,28.66" transform="translate(-4.07 -5.75)"/><path class="cls-1" d="M49.63,27.7c.46-7.4,5.95-12.23,13.46-12.23a14.09,14.09,0,0,1,6.17,1.41" transform="translate(-4.07 -5.75)"/><path class="cls-1" d="M49.2,29.11" transform="translate(-4.07 -5.75)"/><line class="cls-1" x1="52.54" y1="11.29" x2="57.44" y2="20.58"/><line class="cls-1" x1="19.32" y1="6.04" x2="11.14" y2="20.39"/><path class="cls-1" d="M29.72,13.79" transform="translate(-4.07 -5.75)"/><path class="cls-1" d="M41.07,25.07" transform="translate(-4.07 -5.75)"/><path class="cls-1" d="M38.5,25.91" transform="translate(-4.07 -5.75)"/><path class="cls-1" d="M36.18,28.23a2.32,2.32,0,0,1-2.32-2.32,2.5,2.5,0,0,1,2.32-2.32l8.09-1.72c2-.39,3.2,1.43,3.2,3.2a3.2,3.2,0,0,1-3.2,3.2Z" transform="translate(-4.07 -5.75)"/><line class="cls-1" x1="40.19" y1="22.53" x2="49.76" y2="22.53"/><path class="cls-1" d="M20,11.19l1.75-4.94s4.08,2.36,3.43,4.15S20,11.19,20,11.19Z" transform="translate(-4.07 -5.75)"/><path class="cls-1" d="M14,16.8l.68,0a13.94,13.94,0,0,1,9.86,4.78" transform="translate(-4.07 -5.75)"/><path class="cls-2" d="M13,29.63" transform="translate(-4.07 -5.75)"/><path class="cls-1" d="M27.2,30.26" transform="translate(-4.07 -5.75)"/><path class="cls-1" d="M59.54,14.26a8,8,0,0,1-13.78-.78" transform="translate(-4.07 -5.75)"/><path class="cls-1" d="M60.82,9.92" transform="translate(-4.07 -5.75)"/></svg>