<svg id="Layer_1" data-name="Layer 1" xmlns="http://www.w3.org/2000/svg" viewBox="0 0 57.51 43.17"><defs><style>.cls-1{fill:none;stroke:#253149;stroke-linecap:round;stroke-linejoin:round;}</style></defs><title>motorhome</title><polyline class="cls-1" points="51.99 36.21 57.01 36.21 57.01 3.6 2.73 3.6 5.17 13.27 23.76 13.27 23.76 35.47"/><line class="cls-1" x1="19.78" y1="36.21" x2="38.5" y2="36.21"/><polyline class="cls-1" points="9 13.48 6.55 23.15 0.5 27.93 0.5 36.21 6.25 36.21"/><path class="cls-1" d="M63.53,39.63a6.37,6.37,0,1,1-12.73,0q0-.28,0-.55a6.37,6.37,0,0,1,12.68,0Q63.53,39.35,63.53,39.63Z" transform="translate(-11.96 -3.33)"/><circle class="cls-1" cx="45.04" cy="36.3" r="2.34"/><path class="cls-1" d="M31.36,39.63a6.37,6.37,0,1,1-12.73,0q0-.28,0-.55a6.37,6.37,0,0,1,12.68,0Q31.36,39.35,31.36,39.63Z" transform="translate(-11.96 -3.33)"/><circle class="cls-1" cx="12.88" cy="36.3" r="2.34"/><line class="cls-1" x1="23.76" y1="13.27" x2="23.76" y2="3.6"/><polyline class="cls-1" points="27.74 3.6 29.64 0.5 37.4 0.5 39.38 3.6"/><rect class="cls-1" x="27.74" y="15.96" width="7.3" height="16.98"/><polyline class="cls-1" points="35.34 15.96 52.58 15.96 52.58 22.89 35.34 22.89"/><line class="cls-1" x1="42.07" y1="15.96" x2="42.07" y2="22.89"/><line class="cls-1" x1="3.46" y1="6.49" x2="19.4" y2="6.49"/><polyline class="cls-1" points="6.55 23.15 17.09 23.15 17.09 16.6 8.53 16.6"/><line class="cls-1" x1="27.74" y1="13.27" x2="52.58" y2="13.27"/></svg>