<svg id="Layer_1" data-name="Layer 1" xmlns="http://www.w3.org/2000/svg" viewBox="0 0 71.65 35.28"><defs><style>.cls-1{fill:none;stroke:#253149;stroke-linecap:round;stroke-linejoin:round;}</style></defs><title>small_car</title><line class="cls-1" x1="23.93" y1="27.52" x2="50.52" y2="27.52"/><path class="cls-1" d="M15.37,35.85H5.3V29.71c0-10.37,8.87-9.81,8.87-9.81h12.2L34.54,8.82H60.59l4.3,11.92h7.78a2.55,2.55,0,0,1,3,2.57L76,35.85H68.62" transform="translate(-4.8 -8.32)"/><path class="cls-1" d="M75.64,20.74" transform="translate(-4.8 -8.32)"/><circle class="cls-1" cx="17.25" cy="27.49" r="6.68"/><circle class="cls-1" cx="17.08" cy="27.49" r="2.46"/><path class="cls-1" d="M68.65,36.43a6.68,6.68,0,1,1-13.35,0q0-.29,0-.58a6.68,6.68,0,0,1,13.3,0Q68.65,36.14,68.65,36.43Z" transform="translate(-4.8 -8.32)"/><circle class="cls-1" cx="57.01" cy="28.11" r="2.46"/><polygon class="cls-1" points="26.3 12.51 31.95 3.79 52.85 3.79 56.47 12.51 26.3 12.51"/><line class="cls-1" x1="41.39" y1="3.79" x2="41.39" y2="27.52"/><line class="cls-1" x1="31.95" y1="3.79" x2="31.95" y2="12.51"/><path class="cls-1" d="M6.09,26.94a2.32,2.32,0,1,1,0,4.64" transform="translate(-4.8 -8.32)"/><path class="cls-1" d="M14.36,28.83a11.08,11.08,0,0,1,15.36.12" transform="translate(-4.8 -8.32)"/></svg>